Patient4_TMGait_0pt6_02_left_11_EMG.mot
version=1
nRows=13
nColumns=33
inDegrees=no
endheader
time	1LAddLong	2LGlutMax	3LGlutMed	4LIliopsoas	5LSemiMemb	6LBicFemLong	7LRecFem	8LVastMed	9LVastLat	10LGasMed	11LTibAnt	12lTibPost	13LPeroneusLong	14LSol	15LExtDigLong	16LFlexDigLong	17RAddLong	18RGlutMax	19RGlutMed	20RIliopsoas	21RSemiMemb	22RBicFemLong	23RRecFem	24RVastMed	25RVastLat	26RGasMed	27RTibAnt	28RTibPost	29RPeroneusLong	30RSol	31RExtDigLong	32RFlexDigLong
14.385	0.016174	-0.001068	0.36667	0.010681	0.009918	-0.045776	-0.072479	0.001831	0.071716	0.22507	-0.023041	-0.68344	-0.050049	-0.037842	0.00412	0.003662	0.026398	-0.2272	-0.086823	0.003967	0.44418	0.47226	-0.26916	-0.42114	-0.047302	0.016022	-0.024872	-0.014343	-0.067596	-0.1416	-0.003357	0.005188
14.386	0.019836	0.038605	0.46097	0.003662	0.018463	-0.082855	-0.082397	-0.006714	0.062103	0.08255	-0.014801	0.63507	-0.074921	0.021057	-0.069885	-0.008545	0.19867	-0.33371	-0.26276	0.016632	0.27145	0.30609	-0.017242	-0.53467	-0.12802	0.011902	-0.16998	-0.008087	-0.078583	-0.10407	-0.000305	-0.001221
14.387	0.00824	0.042572	0.54184	-0.003967	0.012512	-0.017242	-0.10635	-0.007782	0.05661	0.65857	-0.019073	0.33127	-0.089264	-0.10452	-0.18616	-0.037994	0.13199	-0.27054	-0.55664	-0.007477	0.23117	0.30914	-0.16052	-0.27924	-0.2388	-0.001984	0.50629	-0.01297	-0.25238	-0.061035	-0.001526	-0.005188
14.388	0.005188	0.056915	0.61737	0.021057	-0.006561	0.02243	-0.093994	-0.002289	0.045319	0.52445	-0.040588	-0.006714	-0.050964	-0.16403	-0.021362	-0.059052	0.009308	-0.13489	0.59906	-0.059052	0.60211	0.3804	-0.37582	0.26688	-0.28168	-0.001831	1.0513	-0.009918	-0.41519	-0.23529	-0.001068	-0.011902
14.389	0.000153	0.032043	0.6311	0.027313	-0.016327	0.024109	-0.12192	-0.000916	0.044403	0.58426	-0.050201	-0.059814	-0.025482	-0.063019	0.3183	-0.019379	-0.043335	-0.1471	0.079041	-0.013428	1.0922	0.45334	-0.23071	0.53345	0.041351	0.008698	1.0083	-0.015717	-0.18478	-0.37506	-0.002899	-0.005188
14.39	0.010071	-0.002899	0.69778	0.027008	-0.014954	-0.007782	-0.12772	-0.002136	0.027008	0.36713	-0.051575	-0.13107	0.029907	0.079498	0.099335	0.079346	-0.098267	-0.16037	-0.86517	0.032501	1.0449	0.58868	-0.28946	0.50934	0.36057	0.023346	0.32806	-0.001526	0.14465	-0.4602	-0.002136	-0.00061
14.391	0.016785	0.024567	0.70343	0.003204	-0.013885	0.027924	-0.12909	-0.003357	0.025787	-0.63736	-0.026093	-0.60837	0.11063	0.48798	0.051575	-0.67291	-0.20889	-0.12619	-1.2627	0.093994	0.78079	0.5957	-0.4039	0.83435	0.41	0.033112	-0.12009	0.013733	0.25864	-0.34836	-0.002136	0.000305
14.392	0.018616	0.062561	0.72388	-0.007172	-0.001068	0.054626	-0.15076	-0.006714	0.037994	-1.4238	0.001678	0.40176	0.17777	0.88287	-0.11597	0.29846	-0.19745	-0.062561	-0.21515	-0.036011	0.61417	0.55878	-0.25238	0.98984	0.31372	0.027618	-0.18646	0.001373	0.067444	-0.16022	0.000305	-0.004272
14.393	0.01297	0.042877	0.73563	-0.000763	-0.016632	-0.00412	-0.13672	-0.005341	0.033264	-1.4725	0.018005	0.32349	0.14099	1.1136	-0.1178	0.37155	-0.13886	-0.018463	1.0286	-0.098877	0.31448	0.89081	-0.18295	0.62042	0.58121	0.020599	-0.27191	-0.008698	-0.056915	-0.12863	-0.001373	-0.011444
14.394	0.011749	0.040588	0.75256	0.009003	-0.016174	-0.025787	-0.12253	-0.006714	0.014343	-0.75653	0.018768	0.11154	0.089264	0.33676	-0.078735	-0.11704	-0.077515	-0.10681	0.90698	-0.097961	0.25742	1.2517	-0.25238	0.63004	0.61462	-0.001068	-0.80765	-0.008698	0.053711	-0.036621	-0.007629	-0.003967
14.395	0.014191	0.085297	0.7579	0.010834	-0.015869	-0.038452	-0.11993	-0.010986	0.016937	-0.4332	0.028992	0.067749	0.056915	-0.11307	-0.098267	0.10284	-0.050507	-0.071716	1.0707	-0.094299	0.60303	1.2257	-0.17181	1.42	0.027008	0.008392	-1.0402	-0.007782	0.1474	-0.031281	-0.004883	-0.009766
14.396	0.013733	0.11368	0.76767	0.004883	-0.003662	-0.046387	-0.11276	-0.006409	0.009155	-0.32166	0.022278	-0.057373	-0.007935	-0.43213	-0.10361	-0.066833	-0.049286	-0.003662	0.81726	-0.052185	0.61249	0.96878	0.15747	0.61325	-0.70282	0.000916	-0.84839	-0.009155	0.19089	0.10269	-0.008545	-0.012665
14.397	0.012054	0.084534	0.78186	0.002747	0.027466	-0.03479	-0.12497	-0.006104	-0.008392	-0.28824	0.010529	-0.046082	-0.066833	-0.32562	-0.016479	0.27359	-0.037231	0.042267	-0.095825	-0.044556	-0.063477	0.80368	0.11353	-0.51514	-0.97916	0.004272	-0.83267	0.001068	0.27756	0.2002	-0.009003	-0.003815
